<?xml version="1.0" encoding="UTF-8"?>
<svg width="752pt" height="752pt" version="1.1" viewBox="0 0 752 752" xmlns="http://www.w3.org/2000/svg">
 <path d="m413.41 546.91-81.07-0.003906-0.050782-0.003906h-32.488c-3.9219 0-7.1055-3.1836-7.1055-7.1055v-25.238c0-3.918 3.1836-7.1016 7.1055-7.1016h25.484v-8.4805h-110.86c-1.7227 0-3.3984-0.17188-5.0234-0.50391-11.352-2.3242-19.898-12.371-19.898-24.414v-216.35c0-13.754 11.164-24.922 24.922-24.922h324.09c13.754 0 24.922 11.168 24.922 24.922v216.35c0 13.758-11.172 24.918-24.922 24.918h-99.516v8.4805h27.262c3.918 0 7.1016 3.1836 7.1016 7.1016v25.238c0 3.9219-3.1836 7.1055-7.1016 7.1055l-30.645 0.007812zm-91.41-14.215 32.633 0.003906h58.73l23.586-0.003906v-11.031h-27.258c-3.9219 0-7.1055-3.1836-7.1055-7.1055v-15.582h-63.094v15.582c0 3.9219-3.1875 7.1055-7.1055 7.1055h-25.484v11.031l15.062 0.003906c0.015625 0 0.023437-0.003906 0.035156-0.003906zm129.16 0.003906 7.9844-0.003906v-11.031h-7.9922zm-89.258-18.141c0-3.918 3.1836-7.1016 7.1055-7.1016h3.5625c3.9141 0 7.1016 3.1836 7.1016 7.1016 0 3.9219-3.1875 7.1055-7.1016 7.1055h-3.5625c-3.9219 0-7.1055-3.1836-7.1055-7.1055zm62.879-7.1016v-8.4805h-7.9922v8.4805zm96.32-33.398v-10.699h-317.4v10.699c0 5.9102 4.8008 10.711 10.715 10.711h295.97c5.9102 0 10.715-4.8008 10.715-10.711zm20.383 10.289-6.4727-6.4648c-0.375 2.4297-1.1016 4.7461-2.1211 6.8867h5.6133c1.0312 0 2.0352-0.14453 2.9805-0.42188zm7.7344-10.289v-0.48828l-13.91-13.898v8.0391l12.184 12.172c1.0898-1.6758 1.7266-3.6719 1.7266-5.8242zm0-10.953v-11.734l-13.91-13.898v11.738zm-28.117-13.953v-108.68c0-3.9141 3.1797-7.1016 7.1016-7.1016 3.918 0 7.1055 3.1875 7.1055 7.1016v64.34l13.91 13.895v-11.734l-10.723-10.719c-1.4414-1.4453-1.4453-3.7891 0-5.2344 1.4453-1.4414 3.7891-1.4453 5.2344 0l5.4883 5.4883v-11.734l-7.8594-7.8516c-1.4375-1.4414-1.4453-3.7891 0-5.2344 1.4414-1.4414 3.7891-1.4453 5.2344 0l2.625 2.6211v-116.6c0-5.9062-4.8086-10.715-10.715-10.715h-5.6172c1.5547 3.25 2.4219 6.8828 2.4219 10.715v27.977c0 3.9219-3.1875 7.1016-7.1055 7.1016-3.9219 0-7.1016-3.1797-7.1016-7.1016v-27.977c0-5.9062-4.8125-10.715-10.715-10.715h-295.97c-5.9102 0-10.715 4.8086-10.715 10.715v191.44zm28.117-8.2461v-11.734l-13.91-13.898v11.738zm-166.98-44.449v-30.051l-23.699 14.336c-1.8359 1.1094-4.0742 1.332-6.0859 0.60156l-34.105-12.301-18.773 12.879c-1.5547 1.0664-3.4688 1.4688-5.3242 1.125l-27.77-5.1797c-3.8516-0.71875-6.3984-4.4297-5.6758-8.2891 0.71875-3.8516 4.4297-6.3984 8.2852-5.6758l24.875 4.6367 19.352-13.277c1.8867-1.2891 4.2773-1.5977 6.4297-0.82031l34.34 12.391 28.977-17.531c1.875-1.1328 4.1641-1.3398 6.2109-0.55859l24.922 9.5078 20.625-7.1289c1.3359-0.46094 2.7812-0.51562 4.1484-0.14844l25.406 6.7734c3.7891 1.0117 6.0469 4.9023 5.0352 8.6914-1.0117 3.7891-4.9023 6.0469-8.6914 5.0352l-20.922-5.5742 0.003907 30.559c0 14.645-11.883 26.535-26.527 26.535h-4.5039c-14.648 0-26.531-11.887-26.531-26.535zm43.355 0v-27.113l-7.793 2.6914v21.598c0 3.9219-3.1875 7.1055-7.1055 7.1055-3.9219 0-7.1016-3.1836-7.1016-7.1055l-0.003906-24.223-7.1484-2.7266 0.003907 29.773c0 6.8008 5.5234 12.324 12.324 12.324h4.5039c6.7969 0 12.32-5.5195 12.32-12.324zm-148.89-62.789c-2.7695-2.7734-2.7695-7.2773 0-10.051l11.109-11.109-11.109-11.113c-2.7695-2.7734-2.7695-7.2773 0-10.051 2.7734-2.7695 7.2773-2.7695 10.051 0l11.105 11.117 11.113-11.117c2.7734-2.7695 7.2773-2.7695 10.047 0 2.7734 2.7734 2.7734 7.2773 0 10.051l-11.113 11.113 11.113 11.109c2.7734 2.7734 2.7734 7.2773 0 10.051-2.7695 2.7695-7.2734 2.7695-10.047 0l-11.113-11.109-11.105 11.109c-2.7734 2.7695-7.2773 2.7695-10.051 0zm125.48 0c-2.7695-2.7734-2.7695-7.2773 0-10.051l11.109-11.109-11.109-11.113c-2.7695-2.7734-2.7695-7.2773 0-10.051 2.7734-2.7695 7.2773-2.7695 10.051 0l11.109 11.117 11.113-11.117c2.7734-2.7695 7.2773-2.7695 10.051 0 2.7695 2.7734 2.7695 7.2773 0 10.051l-11.117 11.113 11.117 11.109c2.7695 2.7734 2.7695 7.2773 0 10.051-2.7734 2.7695-7.2773 2.7695-10.051 0l-11.113-11.109-11.109 11.109c-2.7734 2.7695-7.2773 2.7695-10.051 0zm120.09-20.91v-2.707c0-3.2656 2.6484-5.918 5.918-5.918 3.2656 0 5.9219 2.6523 5.9219 5.918v2.707c0 3.2734-2.6562 5.9219-5.9219 5.9219-3.2695 0-5.918-2.6484-5.918-5.9219z" fill-rule="evenodd"/>
</svg>
